<svg version="1.2" xmlns="http://www.w3.org/2000/svg" viewBox="0 0 262 260" width="262" height="260">
	<title>image</title>
	<defs>
		<clipPath clipPathUnits="userSpaceOnUse" id="cp1">
			<path d="m0 0h261.2v260h-261.2z"/>
		</clipPath>
	</defs>
	<style>
		.s0 { fill: #ffffff } 
	</style>
	<g id="Clip-Path" clip-path="url(#cp1)">
		<g id="Layer">
			<path id="Layer" fill-rule="evenodd" class="s0" d="m261 100.9c-0.5 1.5-1.5 2.8-2.8 3.5l-28.9 15.6c0.2 0.9 1.2 4.6 1.3 5 1.2 3.5 1.3 4.3 1 8-0.4 4.1-0.6 5.1-1.1 9.2-0.5 3.6-0.5 5.2-1.3 8.8-0.8 3.6-1.5 6.6-2.3 9.6l26.9 15.8c1.3 0.8 2.3 2 2.7 3.5 0.4 1.5 0.2 3.1-0.6 4.4l-0.5 0.8c-0.8 1.3-2 2.3-3.5 2.7-1.5 0.4-3.1 0.2-4.4-0.6l-23.3-13.6-1.9-1.1-9.8-5.7-3.3-2c-1.3-0.7-2.9-0.9-4.3-0.5-1.5 0.3-2.8 1.3-3.6 2.6l-7.6 13c-0.7 1.3-0.9 2.8-0.6 4.3 0.3 1.4 1.2 2.7 2.5 3.5q0.1 0.1 0.2 0.1l2 1.2 8.5 4.9 9.8 5.8 18 10.5c1.3 0.8 2.3 2 2.6 3.5 0.4 1.5 0.2 3.1-0.6 4.4l-0.7 1.2c-0.7 1.3-2 2.3-3.5 2.7-1.5 0.4-3.1 0.2-4.4-0.6l-30.2-17.7c-5.6 6.2-9.9 10.8-19.2 15.1-5.5 2.5-11.3 5.5-17.3 6.7-4.1 0.9-8 1.6-12 2.2h0.1c2.9 1.3 5.2 4.8 5.2 7.9v10.5c-0.4 4.8-2.8 13.9-16.5 13.9h-24.7c-1.5 0-2.9-0.6-4-1.7-1-1-1.6-2.4-1.6-3.9v-7.2c0-1.5 0.6-3 1.6-4 1.1-1.1 2.5-1.7 4-1.7h1.5c3.1 0 5.7 1.5 5.7 3.3 0 1.8 2.5 3.2 5.6 3.2h9.8c3.1 0 5.7-2.2 5.7-5 0-2.7-2.3-6-5.2-7.3l-23.5-8.2q-0.7-0.2-1.3-0.6c-1.4-0.2-6.8-0.8-7.8-1.1-8.6-2.3-11-3.2-18.9-7.4q-0.4-0.3-0.8-0.4c-3.4-0.5-5.8-2.8-8.5-4.6-3.5-2.5-7.1-4.9-10.4-7.6q-0.8-0.6-1.5-1.3l-25.5 16q-1 0.6-2.1 0.8-1.1 0.2-2.3-0.1-1.1-0.2-2-0.9-1-0.7-1.6-1.6l-0.7-1.2c-0.8-1.3-1.1-2.9-0.7-4.4 0.3-1.5 1.2-2.8 2.5-3.6l5.6-3.5 13.6-8.5c0.8-0.5 1.4-1.1 1.9-1.9 0.5-0.8 0.7-1.7 0.8-2.6 0.1-1.2-0.2-2.4-0.8-3.5l-8.1-12.8c-0.8-1.3-2.1-2.3-3.6-2.6-1.5-0.3-3-0.1-4.4 0.7l-10.1 6.4-9 5.6q-1 0.6-2.2 0.8-1.1 0.2-2.2 0-1.2-0.3-2.1-1-0.9-0.6-1.6-1.6l-0.5-0.8c-0.8-1.3-1-2.9-0.7-4.4 0.4-1.5 1.3-2.8 2.6-3.6l24.8-15.5c-1.3-3.9-2.1-8-2.6-12-0.4-4.2-1-8.4-1.2-12.7q-0.1-4.8 0.4-9.6c0.2-2.1 0.5-4.2 0.8-6.3l-29.3-16.4c-1.4-0.8-2.4-2-2.8-3.5-0.4-1.5-0.2-3.1 0.5-4.4l27.7-49.3c0.8-1.4 2-2.4 3.5-2.8 1.5-0.4 3.1-0.2 4.4 0.5l27.7 15.5 1.2-0.7c1.2-1.1 2.5-2.1 3.8-3.1q1.2-1.6 2.6-2.9c1.1-0.9 4.6-2.5 5.7-3.3 3.1-2.5 3.2-2.3 6.4-4.7 4.2-3.2 7.8-2.8 12.7-4.8 3-1.3 4.4-1.6 5.4-1.7q1.4-0.5 2.8-0.9l0.1-31.8q0-1.1 0.4-2.2 0.5-1.1 1.3-1.9 0.8-0.8 1.9-1.2 1-0.5 2.2-0.5h0.9c1.6 0 3 0.6 4.1 1.7 1.1 1.1 1.7 2.6 1.7 4.1l-0.1 24v20.3c0.1 1.5 0.7 3 1.8 4.1 1 1.1 2.5 1.7 4 1.7l15.1 0.1c1.2 0 2.4-0.4 3.4-1.1 1-0.8 1.7-1.8 2.1-3q0.3-0.8 0.3-1.7v-22l0.1-22.3c0-1.5 0.6-3 1.7-4.1 1.1-1.1 2.5-1.7 4.1-1.7h1.4c1.5 0 3 0.7 4 1.7 1.1 1.1 1.7 2.6 1.7 4.1v32.3c1.2 0.4 2.3 0.8 3.1 1 1.8 0.5 3.9 1.2 5.7 1.7 2.1 0.7 3.1 0.4 5.2 1.2 0.3 0.1 5.4 3.2 5.7 3.2 4.7 1.2 5.4 2.7 9 6 1.5 1.4 4.6 2.3 6.3 3.4 1.2 0.8 3.6 3.8 4.7 4.6l0.7 0.6 28.6-15.4q1-0.6 2.2-0.7 1.1-0.1 2.2 0.2 1.1 0.3 2 1.1 0.9 0.7 1.4 1.7l26.9 49.7c0.7 1.4 0.9 3 0.5 4.4zm-19.6-2.2c1.3-0.7 2.3-2 2.8-3.4 0.4-1.5 0.2-3.1-0.5-4.5l-1.4-2.6c-0.6-1.1-1.5-2-2.6-2.5-0.9-0.4-1.8-0.6-2.7-0.6-0.9 0.1-1.8 0.3-2.6 0.7l-15.9 8.5-10.7 5.7-2.9 1.5q-1.1 0.5-2.2 0.7-1.1 0.1-2.2-0.2-1.2-0.4-2-1.1-0.9-0.7-1.5-1.7l-0.8-1.5c-0.7-1.3-0.8-2.9-0.4-4.4 0.4-1.5 1.4-2.7 2.8-3.4l5.4-2.9 10.1-5.3 14.1-7.5c1.3-0.7 2.3-1.9 2.7-3.4 0.5-1.5 0.3-3.1-0.4-4.4l-1.5-2.8q-0.6-1.1-1.5-1.8-0.8-0.8-2-1.1-1.1-0.3-2.2-0.2-1.2 0.1-2.2 0.6l-2.1 1.2-12.2 6.6-9.5 5.1-3.9 2.1-11.3 6.1c-1.3 0.7-2.9 0.9-4.4 0.4-1.5-0.4-2.7-1.4-3.4-2.8l-0.5-0.8c-0.7-1.4-0.9-2.9-0.4-4.4 0.4-1.5 1.4-2.7 2.8-3.5l6-3.2q-0.7-0.2-1.4-0.6l0.5-1.1-2.1 0.3-0.3-0.3 1.1-1.7c-1.3-1.1-2.7-2.2-3.8-3.4-0.4-0.4-0.4-1.3-0.5-1.9q0-0.5 0.1-1c-1.9 0.3-3.3-0.1-4.6-1.5-0.8-1-1.8-1.8-3-2.4-3.8-1.6-7.7-3.1-11.5-4.7v12.7c0 1.5-0.7 3-1.8 4.1-1 1.1-2.5 1.7-4 1.7l-40.6-0.2c-1.6 0-3-0.6-4.1-1.7-1.1-1.1-1.7-2.5-1.7-4.1v-12.4h-0.1c-2.1-0.4-4.2-0.9-6.3-0.1-1.3 0.5-2.6 0.9-3.8 1.5-3.5 1.8-6 4.4-6.5 8.5q0 0.1 0 0.2c-0.3 0.8-0.5 1.7-1.7 1.6-0.1 0-0.3 0.3-0.4 0.5q-0.1 0.4-0.5 0.7-0.3 0.4-0.8 0.5c-0.2 0-0.6 0.3-0.6 0.4 0.1 1-0.8 1.2-1.3 1.3-0.5 0.2-0.5 0.3-0.6 0.8-0.1 0.5-0.7 0.9-1 1.3l-1-0.7c-0.1 0.8-0.2 1.5-0.3 2.1l-0.2 0.1 6 3.4c1.4 0.8 2.4 2 2.8 3.5 0.4 1.5 0.2 3.1-0.5 4.4l-0.7 1.2-0.1 0.1c-0.7 1.3-2 2.3-3.5 2.7-1.4 0.4-3 0.2-4.3-0.5l-17.2-9.7-6.4-3.6-2.7-1.5-12.3-6.9c-1.4-0.8-2.9-1-4.4-0.5-1.5 0.4-2.7 1.4-3.5 2.7l-1.5 2.6c-0.7 1.4-0.9 3-0.5 4.4 0.4 1.5 1.4 2.8 2.7 3.5l6.2 3.5 6.5 3.6 2.4 1.4 1.9 1c1.3 0.7 2.3 2 2.7 3.5 0.4 1.4 0.2 3-0.5 4.4l-0.8 1.4c-0.8 1.3-2 2.3-3.5 2.7-1.5 0.4-3.1 0.2-4.4-0.5l-1.5-0.7-2-1.2-7.7-4.3-5.8-3.3c-1.3-0.7-2.9-0.9-4.4-0.5-1.4 0.4-2.7 1.4-3.5 2.7l-1.5 2.8c-0.8 1.4-1 3-0.5 4.4 0.4 1.5 1.4 2.8 2.7 3.5l8.4 4.7 6.3 3.6 8.6 4.8 15.3 8.6c1.4 0.8 2.3 2 2.8 3.5 0.4 1.5 0.2 3.1-0.5 4.4l-0.5 0.8c-0.8 1.4-2 2.3-3.5 2.7-1.5 0.5-3 0.3-4.4-0.5l-11.1-6.2-4.3-2.4-2.7-1.5-0.5-0.3q-0.3 0.6-0.3 1.2-0.1 0.6 0.1 1.2 0.1 0.2 0.2 0.4-0.3 1.1-0.4 2.1c-0.3 0.8-0.4 1.6-0.2 2.4 0.3 1.3-0.2 2-0.8 2.9 0 0.2 0.2 0.5 0.2 0.7 0.2 1.6 0.5 3.3 0.7 4.9q0.2 0.6 0.5 1.3c0.2-0.8 0.3-1.2 0.4-1.5q0.6 1.9 0.8 3.9c0.2 2.7 0.4 5.4 0.8 8 0.7 3.5 1.4 7.1 2.3 10.6l1.6-1q-0.7-2.5-1.5-4.9c-0.3-1-0.7-2-1.2-2.9h0.1c0-0.7 0-1.3 0-1.9-0.3-4.5-0.9-9-0.9-13.5 1.4 3.1 3 6.2 3 6.8 0.1 0.6 1.1-4.2 2-2.9 0.2 2.2 0.4 4.3 0.5 6.4-0.3 0.5-0.6 0.9-0.9 1.4-0.2 0.3-0.2 0.8-0.5 1-1.2 0.7-0.7 1.4 0 2q0.1-0.3 0.1-0.7c0.2 0 0.5-0.1 0.5 0q0.7 1.7 1.4 3.4c0 0.1-0.4 0.4-0.7 0.6h0.1l-0.9-0.2-0.2 0.2c0.2 0.4 0.4 1 0.7 1.2 0.8 0.3 1.5 1 1.8 1.8l1.5-0.9 13.6-8.5c1.3-0.8 2.9-1.1 4.4-0.7 1.5 0.3 2.7 1.2 3.6 2.5l0.4 0.8q0.6 1 0.8 2.1 0.2 1.2 0 2.3-0.3 1.1-1 2.1-0.6 0.9-1.6 1.5l-1.2 0.8-7.4 4.6c-1.3 0.8-2.2 2.1-2.5 3.6-0.4 1.5-0.1 3 0.7 4.3l8.1 12.9c0.5 0.7 1.1 1.4 1.9 1.8q1 0.6 2.2 0.8c1.3 0.2 2.7-0.1 3.9-0.8l7-4.4 1.5-0.9q0.5-0.3 1.1-0.5c1.3-0.5 2.6-0.5 3.9-0.1 1.2 0.4 2.3 1.3 3 2.4l0.7 1.2q0.7 1 0.9 2.1 0.1 1.2-0.1 2.3-0.3 1.1-0.9 2-0.7 1-1.7 1.6l-12.1 7.5c1.4 1.4 2.7 2.8 4.1 4.1q1.7 1.4 3.6 2.5c0.9 0.6 1.9 0.9 2.5 1.6 0.5 0.7 1.2 1.2 2.1 1.3q0.4 0.1 0.7 0.3c3.1 2.4 7 3.4 10.4 5.2 2.2 1.2 4.8 1.9 7.3 2.7l3.1 0.5v-7.1c0.3-4.8 2.8-13.9 16.5-13.9h24.7c1.4 0 2.9 0.6 3.9 1.6 1.1 1.1 1.7 2.5 1.7 4v7.2c0 1.5-0.6 3-1.7 4-1 1.1-2.5 1.7-3.9 1.7h-1.5c-3.1 0-5.7-1.5-5.7-3.3 0-1.8-2.5-3.2-5.6-3.2h-9.9c-3.1 0-5.6 2.2-5.6 5 0 2.2 1.5 4.7 3.5 6.3 3.6 0.5 7.1 1.5 10.7 1 3.7-0.5 7.4-0.9 11-1.5q3.7-0.7 7.2-1.8c4-1 8.2-1.6 12-3.4 1.6-0.8 3.3-1.4 4.9-2.3 2.2-1.2 4.3-2.4 6.4-3.7 2.8-1.6 5.8-3 8.3-5q2-1.8 4-3.5l-9.4-5.5q-1-0.6-1.7-1.5-0.6-0.9-0.9-2-0.3-1.1-0.2-2.3 0.2-1.1 0.8-2.1l20.4-35c0.8-1.3 2.1-2.3 3.6-2.7 1.5-0.4 3-0.2 4.4 0.6l11.7 6.8q1-3.9 1.5-7.8l1.7-13.7c0.3-2.7 0.1-5.4-0.4-8l-11.1 6c-1.4 0.7-3 0.8-4.4 0.4-1.5-0.4-2.7-1.4-3.5-2.8l-0.6-1.2c-0.7-1.4-0.9-3-0.5-4.4 0.5-1.5 1.5-2.7 2.8-3.5l3.9-2 7.9-4.3 11.6-6.3 4.6-2.5 11-5.9zm-201.3 52.6l0.8 0.2-0.9-2 0.1 1.9zm1.1 4.8q0 0 0 0 0 0 0 0zm0 0q0.1 0.3 0.2 0.6l0.4-0.3q-0.2-0.1-0.6-0.3zm0.2-0.8q0 0 0 0zm0 0c0 0 0 0 0.1 0 0-0.1 0-0.1 0-0.2zm57.3 60.5zm-19.7-147.5l-1-1.2-0.5 0.3zm-39.7 78.7l0.1-0.1-0.1 0.1zm0.5-3.7c1.3-0.6-0.2-1.2 0.2-1.8h-0.4l0.2 1.8zm-0.8-1.6l-0.3 0.1v1.5h0.4z"/>
			<path id="Layer" fill-rule="evenodd" class="s0" d="m169.5 136.7c0 0.1-0.4 2.4-0.4 2.5 0.1 1.9-0.3 2.3-1 4-0.3 0.8-0.3 2-0.5 2.8-0.1 0.5-0.9 1.8-1 2.3-0.4 1.5-0.5 1.4-1 2.9-0.6 2-1.9 2.6-2.9 4.4-1.8 2.8-1.4 1.1-3.8 3.4-1.3 1.2-2.5 2-3.7 3.1-0.5 0.5-0.8 1.5-1.2 2q-1 1.1-2.1 2.1c-1 0.7-2 1.3-3.1 1.9-0.2 0.1-1.6 1.1-1.7 1.2-0.8 0.7-1.8 1.2-2.8 1.4-1.6 0.4-2 0.5-3.5 0.8q-1.7 0.4-3.4 0.7-3.6 0.6-7.3 0.4c-5.1-0.3-8.3-1.8-13-3.8-4.8-2.1-7.5-2.7-11.2-6.4-1.6-1.7-3.5-3.4-4.7-5.4q-1.8-2.9-3.2-5.9c-0.6-1.1-2.2-3-2.5-4.2-0.4-1.7-0.3-2-0.6-3.7q-0.2-0.8-0.3-1.6c0.5-1-0.1-1.5-0.4-2.5 0-0.4-0.6-2.6-0.6-3-0.3-2.7-0.2-5.3 0.2-7.9q0.1-0.2 0.1-0.4c-0.3-1.3 0.2-2.5 0.5-3.7 0.5-1.6 0.9-3.2 1.4-4.8q0.7-1.6 1.5-3.1 0.4-1 1-2c1.3-1.9 2.7-3.7 3.9-5.6 1.3-2.2 3.3-3.6 5.2-5.2q2.3-2.1 5.1-3.4c1.5-0.7 2.9-1.5 4.4-2.1q1.8-0.7 3.6-1.1c1.3-0.3 2.6-0.6 3.8-0.9 0.2 0 0.4 0.3 0.4 0.5 0.1-0.2 0.8 0.3 0.7-0.2-0.1-0.5 0.1 0 0.5-0.5 0.5-0.5 0.2 0.5 0.8 0q0.6-0.3 1.2-0.4 1.3-0.2 2.7 0.2c0.9 0.3 2.2 0 3.2 0.2l3.4 0.4c1.2 0.2 1.7 0 2.9 0.2 1 0.2 1.9 1.1 2.9 1.4 0.6 0.2 2.6 1 3.2 1.2 2.9 0.9 4.1 1.8 6.7 3.5 2.4 1.5 3.3 2.7 5.3 4.7 1 0.9 1.5 1.6 2.4 2.6q1.4 1.5 2.6 3.1c1.2 1.7 0.6 1.6 1.6 3.4 0.7 1.4 1.4 2.7 2.1 4.1 0.4 0.8 0.6 1.7 0.9 2.6 0.2 0.5 0.4 1 0.5 1.5 0.5 1.9 0.2 2.4 0.6 4.3 0.2 0.8 0.1 2.7 0.2 3.5 0 0.8 0 1.6 0.1 2.4 0 0.8 0.3 1.1 0.3 2.1zm-12.7-8.7c-0.2-1.1-0.5-2.2-0.7-3.2q-0.3-1.3-0.9-2.5-0.5-0.9-1.1-1.8c-0.1-0.3-0.2-0.6-0.3-0.8q-0.7-1.1-1.3-2.2-0.2-0.3-0.4-0.6-0.8-0.9-1.8-1.7c-1-0.8-1.8-1.7-2.9-2.3q-0.1-0.1-0.2-0.2c-1.3-1.3-2.7-2.3-4.3-3q-0.9-0.4-1.8-0.8-1.2-0.5-2.4-0.9-2.1-0.4-4.1-0.7-3.2-0.4-6.4 0-1.5 0.2-3 0.6c-1.3 0.3-2.7 0.8-4 1.3-0.8 0.3-1.6 0.7-2.4 1-0.1 0-0.3 0-0.4-0.1-0.1 0-0.3 0-0.4 0-0.3-0.3-0.4-0.1-0.5 0.2l0.2-0.1c0 0.1 0 0.2 0 0.2-0.2 0.2-0.5 0.5-0.8 0.7 0 0-0.1-0.1-0.2-0.1v-0.3h-0.1c-0.1 0.1-0.3 0.2-0.3 0.3 0 0.7-0.5 0.9-1 1.2-0.4 0.4-1 0.6-1.2 1q-0.4 0.6-1 1c-0.9 0.5-1.4 1.5-2.1 2.3-0.3 0.4-0.6 0.7-1 1l-0.2 0.1-0.2 0.2c-0.1 0.2-0.1 0.2-0.3 0.3q0.1 0.1 0.2 0.2 0.1 0.1 0.1 0.2 0 0.1-0.1 0.3 0 0.1-0.1 0.2-0.4 0.5-0.7 1-0.3 0.8-0.4 1.6-0.3 1-0.6 2c-0.4 0.7-0.8 1.5-1.2 2.3q-0.2 0.6-0.3 1.3 0 0.4-0.2 0.8-0.1 0.2-0.2 0.4 0 0.1 0 0.3 0.1 0.1 0 0.3c-0.3 1-0.2 2.2-0.4 3.3q-0.1 1.2 0 2.3-0.2-0.5-0.3-1.1h-0.1q-0.1 0.2-0.2 0.5c0 0.6 0 1.2 0 1.8 0 0.2 0 0.6 0.1 0.7 0.3 0.3 0.4 0.7 0.3 1 0.1 0.5 0 1 0.1 1.4 0.1 0.7 0.3 1.4 0.5 2.1h0.1q-0.2-1.1-0.4-2.1h0.1q0.1 0.1 0.1 0.3l0.2-0.3c0.5 0.3 0.5 0.8 0.6 1.2 0.3 1.1 0.3 2.4 0.8 3.4 0.5 0.9 1 1.9 1.5 2.9 0.4 0.6 0.8 1.2 1.2 1.8q1 1.6 2.2 2.9c0.4 0.4 0.7 0.8 1.1 1.2q0.8 0.7 1.7 1.4 1 1 2.2 1.8c1.4 0.8 2.8 1.6 4.3 2.3q0.4 0.2 0.8 0.3 0.8 0.4 1.5 0.7 2.2 0.6 4.3 0.9 1.9 0.3 3.7 0.3 2 0 4-0.4l4-0.9q1.8-0.6 3.3-1.6 0.4-0.2 0.6-0.6 0.2-0.3 0.2-0.7c0-0.1 0.1-0.2 0.3-0.4 0.1-0.1 0.3-0.2 0.6-0.4q0.5-0.1 1-0.4 0.4-0.4 0.6-0.9h0.2c0.1-0.3 0.1-0.3-0.1-0.6-0.1-0.1 0-0.2 0-0.3h0.1q0 0.1 0.1 0.3c0.3-0.2 0.7 0.1 0.9-0.3l0.3-0.2c0-0.2-0.1-0.5-0.1-0.8l0.5 0.2q0-0.1 0-0.1 0.3-0.2 0.6-0.4 0.4-0.1 0.6-0.5 0.2-0.4 0.1-0.8-0.1-0.2-0.1-0.4h1.2q0.4-0.2 0.8-0.4c0.6-0.2 1.1-0.6 1.5-1.1 0.2-0.3 0.5-0.6 0.6-1q0.5-0.7 0.5-1.5 0.1-0.9-0.3-1.6v-0.1c-0.1-0.2-0.2-0.5 0.1-0.6 0-0.1 0-0.2 0-0.2q-0.1-0.2 0-0.3 0-0.1 0.1-0.2c0-0.1 0.1-0.2 0.1-0.3-0.2-0.2 0-0.4 0.1-0.5 0-0.1 0.1-0.1 0-0.3-0.1-0.1 0-0.3 0-0.5h0.3l-0.3-0.5q0.1-0.1 0.1-0.2l0.6 0.2c0.2-0.5 0.3-1 0.6-1.4 0-0.2 0.3-0.2 0.5-0.3q0.1-0.1 0.2-0.1-0.2-0.3-0.2-0.7 0-0.4 0.2-0.7 0.3-0.5 0.4-1.1c0-1.3 0.1-2.5 0.1-3.8q0-1.1 0.2-2.3 0.2-1.1-0.1-2.3z"/>
			<path id="Layer" class="s0" d="m56.1 98.3c0-3.7 2.9-6.7 6.6-6.7 3.7 0 6.7 3 6.7 6.7 0 3.7-3 6.7-6.7 6.7-3.7 0-6.6-3-6.6-6.7z"/>
		</g>
	</g>
</svg>