<svg xmlns="http://www.w3.org/2000/svg" viewBox="0 0 452.07 450"><path fill="#fff" d="M69.42 257.32v-.07zM450.88 167.08L404.39 81a10 10 0 00-13.58-4.07l-49.44 26.68-1.24-.92c-2-1.43-6.11-6.59-8.15-7.94-2.9-1.93-8.39-3.62-10.92-6-6.16-5.75-7.36-8.25-15.56-10.28-.6-.14-9.35-5.48-9.94-5.68-3.56-1.25-5.32-.85-8.94-1.93-3.18-1-6.69-2.18-9.93-3-1.38-.34-3.31-1-5.39-1.74l.17-55.88a10.06 10.06 0 00-10-10h-2.42A10.06 10.06 0 00249 10.2l-.11 38.65V86.87a10.26 10.26 0 01-.52 3 10 10 0 01-9.54 7l-26.08-.08a10.16 10.16 0 01-10-10.05V51.56l.12-41.5a10 10 0 00-10-10h-1.62a10 10 0 00-10.06 10l-.19 55c-1.58.53-3.17 1.06-4.73 1.65-1.81.06-4.23.67-9.45 2.84-8.48 3.51-14.63 2.83-22 8.4-5.5 4.16-5.66 3.73-11 8-1.91 1.52-8 4.14-9.83 5.74a53.8 53.8 0 00-4.53 5c-2.36 1.83-4.48 3.55-6.53 5.38l-2.24 1.31-47.86-26.81a10.05 10.05 0 00-13.65 3.84l-47.9 85.35a10.05 10.05 0 003.83 13.65l50.76 28.49c-.51 3.6-1 7.2-1.33 10.82a124.59 124.59 0 00-.72 16.71c.34 7.31 1.35 14.58 2.15 21.86a103.62 103.62 0 004.44 20.79l-42.95 26.86a10.06 10.06 0 00-3.19 13.82l.86 1.38A10.05 10.05 0 0029 323.32l15.66-9.78 17.55-11a10.13 10.13 0 0113.79 3.2L89.92 328a9.93 9.93 0 011.46 6.1 10 10 0 01-4.64 7.72l-23.63 14.75-9.58 6a10.06 10.06 0 00-3.19 13.82l1.29 2.05a10 10 0 0013.81 3.19L109.56 354c.84.77 1.69 1.52 2.58 2.23 5.79 4.64 12 8.81 18.06 13.05 4.57 3.18 8.77 7.1 14.62 8a5.07 5.07 0 011.45.73C160 385.28 164 386.74 179 390.89c1.72.47 11 1.51 13.54 1.75a11.4 11.4 0 002.09 1.18L235.41 408c4.92 2.17 8.94 7.85 8.94 12.62s-4.4 8.66-9.78 8.66h-17c-5.37 0-9.77-2.55-9.77-5.66S203.36 418 198 418h-2.57a9.81 9.81 0 00-9.77 9.78v12.46a9.8 9.8 0 009.77 9.77h42.73c23.66 0 27.93-15.84 28.56-24v-18.25c0-5.37-4-11.48-9-13.58l-.25-.11c7-1 13.69-2.25 20.89-3.71 10.27-2.1 20.38-7.29 29.9-11.7 16-7.39 23.6-15.31 33.24-26.06l52.27 30.56a10.06 10.06 0 0013.72-3.6l1.22-2.08a10.06 10.06 0 00-3.59-13.72L374 345.55l-17-9.9-14.62-8.55-3.5-2c-.15-.09-.26-.21-.4-.3a10 10 0 01-3.19-13.42l13.16-22.51a10.13 10.13 0 0113.71-3.59l5.71 3.33 16.9 9.88 3.33 1.95 40.26 23.54a10.05 10.05 0 0013.71-3.6l.83-1.41a10.05 10.05 0 00-3.6-13.71L392.7 278c1.48-5.16 2.64-10.36 4.07-16.72 1.38-6.16 1.24-9 2.09-15.23.95-7 1.33-8.82 2-15.89.59-6.39.28-7.72-1.66-13.84-.19-.63-1.91-7-2.33-8.65l49.95-27a10.05 10.05 0 004.06-13.59zM134 116.52l.83-.56 1.81 2.05zM69.42 262.09l-.09-.13-.12-3.18 1.59 3.36-1.44-.25zm1.84 8c.38.23.7.44 1 .62l-.73.46c-.1-.38-.18-.74-.27-1.11zm.21-1.28l.19-.32c0 .13.06.23 0 .28s-.12 0-.19.01zm99.33 104.75h-.12l.13-.11zm247-202.75l-19.08 10.3-7.94 4.28-20 10.81-13.8 7.45-6.62 3.58a10.06 10.06 0 00-4.07 13.58l1.15 2.13A10.06 10.06 0 00361 227l19.23-10.38a45.84 45.84 0 01.76 14l-3 23.62a108.23 108.23 0 01-2.65 13.51L355.1 256a10.07 10.07 0 00-13.72 3.6l-35.44 60.6a10 10 0 003.59 13.71l16.2 9.47c-2.29 2-4.6 4-7 6-4.3 3.49-9.5 5.87-14.32 8.73-3.64 2.16-7.26 4.39-11 6.38-2.78 1.49-5.77 2.56-8.6 3.95-6.56 3.24-13.78 4.13-20.72 6a126.78 126.78 0 01-12.36 3.08c-6.31 1.08-12.69 1.75-19.05 2.55s-12.37-.9-18.51-1.77c-3.57-2.72-6.18-7.11-6.18-10.93 0-4.77 4.4-8.66 9.77-8.66h17.05c5.37 0 9.77 2.54 9.77 5.66S249 370 254.37 370h2.57a9.8 9.8 0 009.77-9.77v-12.46a9.8 9.8 0 00-9.77-9.77H214.2c-23.66 0-27.92 15.84-28.55 24v12.32l-5.3-.75c-4.26-1.54-8.76-2.62-12.7-4.74-5.9-3.18-12.55-4.85-17.91-9.07a3.28 3.28 0 00-1.27-.41 5.74 5.74 0 01-3.65-2.3c-.95-1.25-2.81-1.78-4.22-2.71a45.46 45.46 0 01-6.33-4.4c-2.41-2.26-4.71-4.63-7-7l20.89-13.07a10 10 0 003.19-13.81l-1.28-2.06a10 10 0 00-11.95-4.09 9.66 9.66 0 00-1.86.9l-2.67 1.67-12.13 7.59a10 10 0 01-6.72 1.37 10.25 10.25 0 01-3.84-1.38 9.89 9.89 0 01-3.26-3.18l-14-22.23a10.06 10.06 0 013.19-13.82l12.67-7.92 2.13-1.34a10 10 0 003.18-13.81l-.81-1.36a10.06 10.06 0 00-13.82-3.19L76.7 267.89l-2.55 1.6a6.77 6.77 0 00-3.2-3.21c-.59-.28-.8-1.34-1.19-2l.4-.38 1.45.42-.07-.06c.4-.32 1.21-.79 1.15-.94-.75-2-1.61-4-2.49-6 0-.09-.45 0-.73 0-.09.44-.19.89-.29 1.33-1.15-1.16-2.06-2.27 0-3.53.49-.29.57-1.2.91-1.78.44-.76 1-1.48 1.58-2.43-.24-3.5-.62-7.21-.83-11-1.59-2.2-3.34 6-3.43 5.05-.09-1.11-2.78-6.48-5.3-11.85 0 7.79 1 15.58 1.55 23.37.08 1.07 0 2.16 0 3.24h-.06c.7 1.7 1.54 3.37 2.08 5.13.87 2.79 1.69 5.6 2.54 8.4l-2.74 1.71c-1.64-6-2.91-12.15-4-18.31-.78-4.54-1-9.18-1.49-13.76a40.29 40.29 0 00-1.25-6.89c-.21.68-.41 1.36-.8 2.63a15.6 15.6 0 01-.8-2.24c-.45-2.79-.83-5.6-1.25-8.4-.06-.43-.41-1-.25-1.26.93-1.53 1.82-2.69 1.24-5a8.22 8.22 0 01.43-4.09 18.53 18.53 0 01.59-3.64c-.06-.25-.13-.51-.2-.74a5.45 5.45 0 01.34-4.17l.8.46 4.72 2.64 7.34 4.12 19.3 10.83a10.12 10.12 0 0013.65-3.83l.79-1.42a10.14 10.14 0 00-3.83-13.66l-26.57-14.89L59.43 185l-11-6.16-14.52-8.14a10.06 10.06 0 01-3.83-13.66l2.71-4.83a10.05 10.05 0 0113.65-3.84l9.92 5.63 13.38 7.51 3.55 2 2.5 1.25a10.06 10.06 0 0013.65-3.84l1.38-2.45A10.07 10.07 0 0087 144.8l-3.31-1.7-4.06-2.32-11.26-6.32-10.68-6a10.05 10.05 0 01-3.84-13.65l2.57-4.58a10.05 10.05 0 0113.65-3.84l21.36 12 4.7 2.64 11 6.2 29.76 16.7a10.05 10.05 0 0013.56-3.71l.09-.13 1.18-2.1a10.07 10.07 0 00-3.84-13.66l-10.5-5.89.47-.19c.15-1.15.29-2.3.45-3.65l1.64 1.23c.66-.82 1.63-1.5 1.78-2.32s.21-1 1.09-1.28 2.33-.66 2.19-2.3c0-.23.69-.64 1.13-.78a2.87 2.87 0 002.23-2.09c.07-.3.46-.76.67-.74 2.11.2 2.38-1.47 2.95-2.83a.76.76 0 00.06-.26c.73-7.18 5.06-11.65 11.16-14.71 2.09-1.05 4.32-1.81 6.51-2.65 3.66-1.39 7.28-.62 10.92.2h.3l-.07 21.46a10.06 10.06 0 0010 10.05l70.23.21a10.06 10.06 0 0010.06-10l.06-21.92c6.63 2.74 13.34 5.29 19.9 8.18a15.42 15.42 0 015.27 4.1c2.14 2.49 4.65 3.06 7.92 2.54a7.35 7.35 0 00-.18 1.74c.16 1.15.1 2.62.78 3.34 2 2.1 4.35 3.9 6.58 5.83l-1.88 2.89.48.64 3.65-.53-.75 1.9a11.6 11.6 0 002.36 1l-10.43 5.63a10.06 10.06 0 00-4.06 13.59l.77 1.43a10.06 10.06 0 0013.59 4.06l19.6-10.57 6.74-3.64 16.35-8.83 21.12-11.39 3.67-2A10.05 10.05 0 01396.3 110l2.64 4.88a10.11 10.11 0 01-4.06 13.59l-24.34 12.89-17.54 9.27-9.29 4.92a10.05 10.05 0 00-4.06 13.58l1.34 2.48a10 10 0 0013.58 4.06l5-2.66 18.56-9.83 27.62-14.64a10 10 0 019.05-.19 9.84 9.84 0 014.53 4.25l2.5 4.63a10.05 10.05 0 01-4.07 13.58zM68 254.15l.15-.08-.14.13zm.87-6.28l-.33-3.1h.71c-.72 1.03 1.88 2.02-.35 3.1zm-1.14 0l-.7.05v-2.73l.49-.05zM168.25 201z"></path><path fill="#fff" d="M292.82 232.88c-.07-1.29-.08-2.74-.21-4-.15-1.47.05-4.68-.27-6.1-.76-3.35-.17-4.15-1-7.47-.24-.9-.6-1.77-.91-2.66-.53-1.48-.95-3-1.61-4.45-1.11-2.38-2.37-4.68-3.58-7-1.68-3.23-.65-3.11-2.8-6a62.8 62.8 0 00-4.5-5.4c-1.52-1.65-2.48-2.86-4.06-4.45-3.45-3.48-5.16-5.51-9.28-8.14-4.48-2.87-6.5-4.42-11.61-6-1-.33-4.42-1.75-5.46-2.05-1.79-.52-3.24-2.06-5.06-2.44-2.08-.43-2.92-.07-5-.36l-5.92-.76c-1.76-.23-3.87.2-5.56-.3a12 12 0 00-4.68-.39 6.78 6.78 0 00-2 .72c-1 .84-.55-.86-1.42.08-.67.72-1-.15-.84.85.11.83-1 0-1.31.26 0-.37-.21-.82-.52-.76-2.21.48-4.45.89-6.65 1.46a47.8 47.8 0 00-6.2 1.92c-2.62 1.08-5.14 2.4-7.7 3.64a40 40 0 00-8.84 5.83c-3.19 2.78-6.64 5.26-8.94 9-2.09 3.36-4.54 6.48-6.76 9.76a32.8 32.8 0 00-1.79 3.43 59.22 59.22 0 00-2.48 5.45c-.93 2.72-1.65 5.52-2.4 8.3-.57 2.09-1.45 4.13-1 6.38a2 2 0 01-.08.63 46.85 46.85 0 00-.42 13.64c.05.73 1 4.61 1.16 5.31.45 1.7 1.49 2.47.54 4.18a17.73 17.73 0 00.61 2.85c.5 3 .28 3.45 1 6.41.5 2.1 3.36 5.36 4.28 7.32a107.34 107.34 0 005.59 10.14c2.11 3.48 5.33 6.49 8.18 9.39 6.33 6.45 11.1 7.43 19.39 11 8.06 3.5 13.7 6.17 22.5 6.68a62.24 62.24 0 0012.56-.72 55.59 55.59 0 005.84-1.23c2.69-.57 3.4-.66 6.06-1.35a10 10 0 004.84-2.41c.23-.17 2.74-1.91 3-2.06 1.9-1.19 3.61-2.06 5.41-3.39a31.69 31.69 0 003.55-3.59c.81-.82 1.36-2.63 2.19-3.42 2.1-2 4.18-3.32 6.28-5.34 4.15-4 3.49-1.17 6.57-6 1.9-3 4-4.16 5.1-7.58.82-2.54 1-2.44 1.72-5 .26-.9 1.6-3.09 1.83-4 .33-1.32.23-3.54.75-4.77 1.28-3 2-3.77 1.72-7 0-.23.78-4.13.78-4.37-.13-1.62-.51-2.21-.59-3.67zm-21.26-7.32a30.79 30.79 0 00-.3 4c-.1 2.17-.14 4.35-.3 6.52a4.49 4.49 0 01-.61 1.87 2.29 2.29 0 00.08 2.45 2.29 2.29 0 00-.5.12c-.3.16-.72.29-.85.55-.38.77-.65 1.6-1 2.41l-1-.24c-.05.07-.09.14-.14.2l.52 1h-.61c0 .31-.14.64 0 .86s.12.28-.05.5-.45.55-.14.92c.05.05-.06.27-.14.38a.86.86 0 00-.18.88v.3c-.54.31-.32.75-.23 1.18v.07a5.33 5.33 0 01-.19 5.44c-.33.61-.74 1.17-1.13 1.75a5.44 5.44 0 01-2.66 1.8 10.25 10.25 0 00-1.24.72h-2.09a4.92 4.92 0 00.1.67 2 2 0 01-1.22 2.34 5.65 5.65 0 00-1 .63c0 .06.05.11.07.17l-.92-.28c0 .48.09 1 .13 1.43l-.58.23c-.3.66-1 .27-1.46.63-.09-.24-.15-.43-.22-.6h-.19c0 .19-.06.42 0 .56.33.53.35.52.23 1.06l-.29-.11a4.12 4.12 0 01-2.92 2.35c-.42.3-.73.48-1 .71s-.42.38-.44.58a2.68 2.68 0 01-1.38 2.21 19.25 19.25 0 01-5.8 2.81l-6.85 1.52a36.81 36.81 0 01-6.94.79 38.9 38.9 0 01-6.36-.53 48.87 48.87 0 01-7.41-1.6 21.15 21.15 0 01-2.61-1.21 8.44 8.44 0 01-1.53-.44c-2.5-1.31-5-2.56-7.45-4A34.46 34.46 0 01199 266c-1-.8-1.94-1.58-2.86-2.42-.69-.62-1.29-1.35-1.95-2a32.47 32.47 0 01-3.73-5.15c-.72-1-1.47-2-2.09-3.12-.92-1.65-1.74-3.36-2.6-5s-1-3.84-1.44-5.77c-.18-.77-.2-1.61-1-2.16l-.33.61c-.1-.25-.16-.41-.22-.58h-.14c.21 1.19.43 2.38.65 3.57h-.22c-.28-1.19-.61-2.36-.81-3.56-.13-.78 0-1.59-.1-2.38a2.54 2.54 0 00-.59-1.83c-.22-.2-.13-.76-.14-1.15 0-1-.07-2.08 0-3.12a3.3 3.3 0 01.29-.87h.19c.17.64.34 1.28.52 1.93a27.22 27.22 0 010-3.94c.3-2 .1-4 .74-5.87a.86.86 0 000-.39 1.65 1.65 0 01.28-1.24 5 5 0 00.33-1.44 13.44 13.44 0 01.59-2.2c.6-1.38 1.3-2.72 2-4.07.33-1.12.67-2.23 1-3.35a24.67 24.67 0 01.73-2.75 10.54 10.54 0 011.28-1.8 1 1 0 00-.21-1.54c.35-.16.43-.25.47-.52l.32-.36.49-.1c.58-.61 1.2-1.19 1.74-1.84 1.13-1.37 2-3 3.54-4a4.41 4.41 0 001.75-1.63c.42-.74 1.4-1.16 2.14-1.72s1.64-1 1.75-2.15c0-.19.3-.36.45-.53l.15.07v.44c.12.08.34.26.37.23.49-.41 1-.85 1.41-1.29 0 0 0-.13-.07-.2l-.4.05c.21-.43.42-.8 1-.35.13.11.39 0 .58.08s.51.12.84.2c1.3-.57 2.69-1.26 4.13-1.79 2.27-.84 4.56-1.67 6.89-2.31a43.17 43.17 0 015.18-.91 40.86 40.86 0 0111-.06A68.46 68.46 0 01240 187a37 37 0 014.27 1.55 30.07 30.07 0 013.09 1.3 25 25 0 017.35 5.17 1.61 1.61 0 00.36.33c1.89 1.08 3.32 2.73 5 4a32.32 32.32 0 013.23 3.06 4.51 4.51 0 01.64.91q1.11 1.9 2.18 3.83c.24.44.41.93.65 1.37.59 1.07 1.21 2.13 1.79 3.2a14.35 14.35 0 011.69 4.2c.33 1.89.8 3.76 1.18 5.64a10 10 0 01.13 4z"></path><circle fill="#fff" cx="108.57" cy="170.12" r="11.55"></circle></svg>